<?xml version="1.0" encoding="utf-8"?>
<svg version="1.2" baseProfile="tiny" id="Layer_1" xmlns="http://www.w3.org/2000/svg" xmlns:xlink="http://www.w3.org/1999/xlink"
	 x="0px" y="0px" width="60px" height="30px" viewBox="0 0 60 30" overflow="scroll" xml:space="preserve">
<rect fill="#003399" width="60" height="30"/>
<path fill="#FFFFF1" d="M60,0h-7.507L36.861,7.805c0-3.298,0-7.805,0-7.805H23.095c0,0,0,4.807,0,8.125L6.572,0H0v4.057l11.85,5.856
	c-5.96,0-11.85,0-11.85,0v10.393c0,0,5.826,0,11.754,0L0,26.203V30h7.776l15.319-7.677c0,3.243,0,7.677,0,7.677h13.766
	c0,0,0-4.558,0-7.812L52.688,30H60v-3.754l-12.042-5.94c6.029,0,12.042,0,12.042,0V9.913c0,0-5.973,0-11.981,0l11.981-6V0z"/>
<path fill="#CC0000" d="M19.315,9.913L0,0v2.616l14.431,7.296C16.178,9.913,17.858,9.913,19.315,9.913z"/>
<path fill="#CC0000" d="M40.713,20.306L60,30l0,0v-2.434l-14.403-7.261C43.851,20.306,42.171,20.306,40.713,20.306z"/>
<path fill="#CC0000" d="M23.095,20.306c-0.891,0-2.292,0-3.973,0L0,30l0,0h4.58l18.515-9.219
	C23.095,20.613,23.095,20.455,23.095,20.306z"/>
<path fill="#CC0000" d="M36.861,9.913c0.84,0,2.139,0,3.7,0L60,0.243V0h-4.375L36.861,9.3C36.861,9.519,36.861,9.724,36.861,9.913z"
	/>
<polygon fill="#CC0000" points="60,12.118 33.912,12.118 33.912,0 26.045,0 26.045,12.118 0,12.118 0,18.1 26.045,18.1 26.045,30
	33.912,30 33.912,18.1 60,18.1 "/>
</svg>
